HIERARCHY
    ROOT Hips
    {
        OFFSET -42.200000 91.615000 -40.070000
        CHANNELS 6 Xposition Yposition Zposition Zrotation Yrotation Xrotation
        JOINT Thigh_L
        {
            OFFSET 0.103500 1.857800 10.548500
            CHANNELS 3 Zrotation Yrotation Xrotation
            JOINT Shin_L
            {
                OFFSET 43.500000 0.000000 0.000000
                CHANNELS 3 Zrotation Yrotation Xrotation
                JOINT Foot_L
                {
                    OFFSET 42.372000 0.000000 0.000000
                    CHANNELS 3 Zrotation Yrotation Xrotation
                    JOINT Toe_L
                    {
                        OFFSET 17.300000 0.000000 0.000000
                        CHANNELS 3 Zrotation Yrotation Xrotation
                        End Site
                        {
                            OFFSET 0.000000 0.000000 0.000000
                        }
                    }
                }
            }
        }
        JOINT Thigh_R
        {
            OFFSET 0.103500 1.857800 -10.548500
            CHANNELS 3 Zrotation Yrotation Xrotation
            JOINT Shin_R
            {
                OFFSET 43.500000 0.000000 0.000000
                CHANNELS 3 Zrotation Yrotation Xrotation
                JOINT Foot_R
                {
                    OFFSET 42.372000 0.000000 0.000000
                    CHANNELS 3 Zrotation Yrotation Xrotation
                    JOINT Toe_R
                    {
                        OFFSET 17.300000 0.000000 0.000000
                        CHANNELS 3 Zrotation Yrotation Xrotation
                        End Site
                        {
                            OFFSET 0.000000 0.000000 0.000000
                        }
                    }
                }
            }
        }
        JOINT Spine
        {
            OFFSET 6.900000 -2.600000 0.000000
            CHANNELS 3 Zrotation Yrotation Xrotation
            JOINT Spine1
            {
                OFFSET 12.588000 0.000000 0.000000
                CHANNELS 3 Zrotation Yrotation Xrotation
                JOINT Spine2
                {
                    OFFSET 12.343000 0.000000 0.000000
                    CHANNELS 3 Zrotation Yrotation Xrotation
                    JOINT Neck
                    {
                        OFFSET 25.833000 0.000000 0.000000
                        CHANNELS 3 Zrotation Yrotation Xrotation
                        JOINT Head
                        {
                            OFFSET 11.766600 0.000000 0.000000
                            CHANNELS 3 Zrotation Yrotation Xrotation
                            End Site
                            {
                                OFFSET 0.000000 0.000000 0.000000
                            }
                        }
                    }
                    JOINT Shoulder_L
                    {
                        OFFSET 19.746000 -1.480000 6.000000
                        CHANNELS 3 Zrotation Yrotation Xrotation
                        JOINT UpperArm_L
                        {
                            OFFSET 11.284000 0.000000 0.000000
                            CHANNELS 3 Zrotation Yrotation Xrotation
                            JOINT Forearm_L
                            {
                                OFFSET 33.000000 0.000000 0.000000
                                CHANNELS 3 Zrotation Yrotation Xrotation
                                JOINT Hand_L
                                {
                                    OFFSET 25.200000 0.000000 0.000000
                                    CHANNELS 3 Zrotation Yrotation Xrotation
                                    End Site
                                    {
                                        OFFSET 0.000000 0.000000 0.000000
                                    }
                                }
                            }
                        }
                    }
                    JOINT Shoulder_R
                    {
                        OFFSET 19.745000 -1.480000 -6.000000
                        CHANNELS 3 Zrotation Yrotation Xrotation
                        JOINT UpperArm_R
                        {
                            OFFSET 11.284000 0.000000 0.000000
                            CHANNELS 3 Zrotation Yrotation Xrotation
                            JOINT Forearm_R
                            {
                                OFFSET 33.000000 0.000000 0.000000
                                CHANNELS 3 Zrotation Yrotation Xrotation
                                JOINT Hand_R
                                {
                                    OFFSET 25.200000 0.000000 0.000000
                                    CHANNELS 3 Zrotation Yrotation Xrotation
                                    End Site
                                    {
                                        OFFSET 0.000000 0.000000 0.000000
                                    }
                                }
                            }
                        }
                    }
                }
            }
        }
    }
    MOTION
Frames: 5
Frame Time: 0.033333
0.0 92.71921358100785 0.0 -85.8184582417588 -178.9734822182168 -3.013079394156374e-07 4.701573094896148 -179.12585007822142 0.9069594755448369 -8.259830579340106 -2.504903362767065 -1.8540386285006825 81.77183070571472 -0.8667928405832844 -0.0927388811476183 21.45455308873717 0.003096450877291908 1.318905087311305e-06 2.313776100213302 177.9441863706742 -1.6865908847474134 -14.86045453002779 1.7896468066569757 0.7221679604982014 84.38799123331553 -0.6142709285709811 -0.28693859490976287 21.45455821137905 -0.0031041408848922892 -1.5679393230485544e-05 6.194051390813974 -0.36198847338602497 -0.018731070092192638 2.3547030206068413 -0.6974918210482677 -0.06273796890942487 2.036595070863137 -0.6975828013024463 -0.05841902818783557 2.6486709473896055 0.9217305066769299 -2.2090106032988266 -6.752970893237995 0.45090950557123094 1.1174293002195468 -75.60701124388792 -82.25241647609515 -106.86806307498426 -8.277992052343171 0.812615406560773 -4.792557617943064 0.8318597847124013 -1.7479614151004474 -1.3065809305558833 0.16071664568707433 1.3481070933273858 2.9996671117605676 -100.44143563208172 87.97593058545824 81.39910045251796 -1.5519106533721634 0.08567826647461019 4.283073317184304 -0.7595391804593675 0.9043491693431285 1.7946390346100203 0.3148923447072301 -2.960242832984431 -1.6535051282427544
0.20914816856384277 92.66212463378906 -0.07425989210605621 93.44355010986328 2.556489944458008 130.87220764160156 -176.22328186035156 -0.8191871643066406 -179.56167602539062 -9.05284595489502 -2.5578315258026123 -1.7945301532745361 81.95248413085938 -0.9726524353027344 -0.0739445611834526 21.444334030151367 0.00622668256983161 0.00453403452411294 -177.8695831298828 1.9876734018325806 178.8603515625 -15.467536926269531 1.6304523944854736 0.9155055284500122 85.71199035644531 -1.0289433002471924 -0.48655664920806885 21.447879791259766 -0.0028854296542704105 0.007567364256829023 6.704468727111816 -0.1654002070426941 -0.06210063397884369 2.434861421585083 -0.6057380437850952 -0.1159190759062767 2.188286781311035 -0.7378284335136414 -0.12561558187007904 2.431778907775879 1.024645447731018 -2.2080745697021484 -6.881351470947266 0.3680228590965271 1.1422195434570312 -76.51356506347656 -82.31066131591797 -106.05338287353516 -8.110937118530273 1.0793204307556152 -5.484314918518066 0.9386942386627197 -1.7000170946121216 -1.269303798675537 0.22860829532146454 1.2947068214416504 2.927151679992676 -106.7062759399414 88.1427993774414 75.30510711669922 -1.9378454685211182 0.27185800671577454 5.498213768005371 -1.9850971698760986 0.9866856336593628 1.8414605855941772 0.18208707869052887 -2.6736323833465576 -1.7405911684036255
0.5368456840515137 92.6135025024414 -0.2914820909500122 93.28262329101562 2.46235990524292 131.9197998046875 -177.154296875 -0.7402772307395935 179.7579345703125 -10.351140022277832 -2.647942066192627 -1.7068228721618652 81.87264251708984 -1.1533554792404175 -0.022975273430347443 21.43131446838379 0.00869094580411911 0.01024525985121727 -177.6555938720703 2.0606210231781006 179.75363159179688 -14.948519706726074 1.5540145635604858 0.9690369367599487 85.43914794921875 -1.22724449634552 -0.3793916404247284 21.439756393432617 -0.001281512202695012 0.01696801371872425 7.010187149047852 0.03552835062146187 -0.0916857048869133 2.358858108520508 -0.48265403509140015 -0.15452805161476135 2.154628038406372 -0.7653228640556335 -0.1681036353111267 2.299177885055542 1.191050410270691 -2.220562696456909 -6.927481651306152 0.27268582582473755 1.1749975681304932 -76.80863952636719 -82.23502349853516 -105.73863220214844 -7.692089080810547 1.6331244707107544 -5.800440311431885 1.1561939716339111 -1.6232470273971558 -1.2262678146362305 0.28949499130249023 1.2840856313705444 2.838557243347168 -109.4916000366211 88.26708984375 72.6693115234375 -1.9415295124053955 0.17367367446422577 6.416443824768066 -3.4216220378875732 1.0552215576171875 1.8750816583633423 0.02739170752465725 -2.415635585784912 -1.8221783638000488
0.4638890027999878 92.52545166015625 -0.08704036474227905 93.04641723632812 2.1935558319091797 133.23863220214844 -178.9755096435547 -1.0682874917984009 179.2188262939453 -13.079062461853027 -2.8126752376556396 -1.6180248260498047 81.66490173339844 -1.5292565822601318 -0.16538400948047638 21.426464080810547 0.015605065040290356 0.01279024314135313 -177.77944946289062 1.9443249702453613 -179.03245544433594 -14.981456756591797 1.4580636024475098 0.7130334377288818 85.52175903320312 -0.9448275566101074 -0.07869125157594681 21.432628631591797 1.4532078239426482e-05 0.02140314318239689 7.33014440536499 -0.10679175704717636 -0.08203081786632538 2.4079153537750244 -0.7008719444274902 -0.08134520798921585 2.153012275695801 -1.006678581237793 -0.03383027762174606 2.1056230068206787 1.1901243925094604 -2.2554361820220947 -7.0718770027160645 0.3696780204772949 1.1171332597732544 -76.86390686035156 -82.1961669921875 -105.7085189819336 -7.228857040405273 1.8084325790405273 -6.645172119140625 1.0817025899887085 -1.6799094676971436 -1.2292174100875854 0.3016204237937927 1.1676932573318481 2.784517288208008 -112.75460815429688 88.40725708007812 69.53449249267578 -1.970184326171875 -0.3569530248641968 7.054165840148926 -4.918985843658447 0.9844993352890015 1.869356393814087 -0.1408233493566513 -2.1721341609954834 -1.9842835664749146
0.828761100769043 92.33198547363281 0.559731125831604 92.48886108398438 1.8459116220474243 134.630126953125 178.59951782226562 -1.6731408834457397 178.85809326171875 -17.056840896606445 -2.9896159172058105 -1.4453678131103516 81.90191650390625 -2.109204053878784 -0.4159010946750641 21.41819953918457 0.01842362806200981 0.01420565601438284 -178.1349334716797 1.706938624382019 -177.7307891845703 -15.754283905029297 1.2945603132247925 0.37117189168930054 86.15827941894531 -0.43294569849967957 0.3373826742172241 21.427188873291016 0.002275290200486779 0.029984191060066223 7.458287239074707 -0.28377047181129456 -0.038778167217969894 2.4789254665374756 -0.9259707927703857 0.03421305865049362 2.1533734798431396 -1.226981520652771 0.1456349641084671 1.861763596534729 1.0824223756790161 -2.287567377090454 -7.261765003204346 0.5325008034706116 1.0335724353790283 -77.3353271484375 -82.13847351074219 -105.25985717773438 -6.752631187438965 1.996588945388794 -7.690548896789551 0.761981189250946 -1.7911365032196045 -1.234150767326355 0.2660048007965088 0.9869594573974609 2.8017361164093018 -116.69635009765625 88.49065399169922 65.66521453857422 -1.9515677690505981 -1.113263487815857 7.454654693603516 -6.448380947113037 0.8259736895561218 1.8455030918121338 -0.33485496044158936 -1.9146149158477783 -2.1864192485809326
